<svg class="ico_svg ic_insta" width="35" height="35" viewBox="0 0 35 35" fill="none" xmlns="http://www.w3.org/2000/svg">
<path class="svg-elm svg-path svg-path01" d="M17.536 9.22917C12.9526 9.22917 9.30029 12.9531 9.30029 17.4648C9.30029 22.0482 12.9526 25.7005 17.536 25.7005C22.0477 25.7005 25.7716 22.0482 25.7716 17.4648C25.7716 12.9531 22.0477 9.22917 17.536 9.22917ZM17.536 22.8359C14.5998 22.8359 12.1649 20.4727 12.1649 17.4648C12.1649 14.5286 14.5282 12.1654 17.536 12.1654C20.4722 12.1654 22.8354 14.5286 22.8354 17.4648C22.8354 20.4727 20.4722 22.8359 17.536 22.8359ZM27.9917 8.94271C27.9917 7.86849 27.1323 7.00911 26.0581 7.00911C24.9839 7.00911 24.1245 7.86849 24.1245 8.94271C24.1245 10.0169 24.9839 10.8763 26.0581 10.8763C27.1323 10.8763 27.9917 10.0169 27.9917 8.94271ZM33.4344 10.8763C33.2912 8.29818 32.7183 6.00651 30.8563 4.14453C28.9943 2.28255 26.7026 1.70964 24.1245 1.56641C21.4748 1.42318 13.5256 1.42318 10.8758 1.56641C8.29769 1.70964 6.07764 2.28255 4.14404 4.14453C2.28206 6.00651 1.70915 8.29818 1.56592 10.8763C1.42269 13.526 1.42269 21.4753 1.56592 24.125C1.70915 26.7031 2.28206 28.9232 4.14404 30.8568C6.07764 32.7187 8.29769 33.2917 10.8758 33.4349C13.5256 33.5781 21.4748 33.5781 24.1245 33.4349C26.7026 33.2917 28.9943 32.7187 30.8563 30.8568C32.7183 28.9232 33.2912 26.7031 33.4344 24.125C33.5776 21.4753 33.5776 13.526 33.4344 10.8763ZM29.9969 26.918C29.4956 28.3503 28.3498 29.4245 26.9891 29.9974C24.8407 30.8568 19.8276 30.6419 17.536 30.6419C15.1727 30.6419 10.1597 30.8568 8.08284 29.9974C6.65055 29.4245 5.57633 28.3503 5.00342 26.918C4.14404 24.8411 4.35889 19.8281 4.35889 17.4648C4.35889 15.1732 4.14404 10.1602 5.00342 8.01172C5.57633 6.65104 6.65055 5.57682 8.08284 5.00391C10.1597 4.14453 15.1727 4.35937 17.536 4.35937C19.8276 4.35937 24.8407 4.14453 26.9891 5.00391C28.3498 5.50521 29.424 6.65104 29.9969 8.01172C30.8563 10.1602 30.6414 15.1732 30.6414 17.4648C30.6414 19.8281 30.8563 24.8411 29.9969 26.918Z" fill="white"/>
</svg>
